<svg width="512" height="512" xmlns="http://www.w3.org/2000/svg">

 <g>
  <title>background</title>
  <rect fill="none" id="canvas_background" height="402" width="582" y="-1" x="-1"/>
 </g>
 <g>
  <title>Layer 1</title>
  <path fill="#024286" id="XMLID_13719_" d="m369.32,95.35c0.623,-0.648 1.26,-1.278 1.908,-1.892c0.23,-0.217 0.469,-0.421 0.702,-0.634c0.426,-0.389 0.851,-0.778 1.287,-1.151c0.277,-0.237 0.563,-0.461 0.844,-0.691c0.404,-0.333 0.809,-0.667 1.222,-0.987c0.302,-0.233 0.609,-0.454 0.915,-0.68c0.404,-0.299 0.808,-0.599 1.219,-0.886c0.084,-0.059 0.164,-0.123 0.248,-0.181l-252.078,0c-11.729,0 -21.27,9.523 -21.27,21.229l0,303.533l155.833,0c2.573,0 4.659,2.086 4.659,4.66c0,29.04 21.186,41.492 39.413,43.36l9.388,0c19.982,-1.637 40.269,-15.599 40.681,-43.172l-0.001,-285.169c0.001,-13.984 5.339,-27.245 15.03,-37.339zm-46.411,263.165l-83.876,0c-2.574,0 -4.66,-2.086 -4.66,-4.659c0,-2.574 2.086,-4.66 4.66,-4.66l83.876,0c2.574,0 4.66,2.086 4.66,4.66c0,2.573 -2.086,4.659 -4.66,4.659zm0,-27.958l-195.711,0c-2.574,0 -4.66,-2.086 -4.66,-4.66s2.086,-4.66 4.66,-4.66l195.711,0c2.574,0 4.66,2.086 4.66,4.66s-2.086,4.66 -4.66,4.66zm0,-27.959l-195.711,0c-2.574,0 -4.66,-2.086 -4.66,-4.66c0,-2.573 2.086,-4.659 4.66,-4.659l195.711,0c2.574,0 4.66,2.086 4.66,4.659c0,2.574 -2.086,4.66 -4.66,4.66zm0,-27.959l-195.711,0c-2.574,0 -4.66,-2.086 -4.66,-4.659c0,-2.574 2.086,-4.66 4.66,-4.66l195.711,0c2.574,0 4.66,2.086 4.66,4.66c0,2.573 -2.086,4.659 -4.66,4.659zm0,-27.958l-195.711,0c-2.574,0 -4.66,-2.087 -4.66,-4.66s2.086,-4.66 4.66,-4.66l195.711,0c2.574,0 4.66,2.087 4.66,4.66s-2.086,4.66 -4.66,4.66zm0,-27.959l-195.711,0c-2.574,0 -4.66,-2.087 -4.66,-4.66s2.086,-4.659 4.66,-4.659l195.711,0c2.574,0 4.66,2.086 4.66,4.659s-2.086,4.66 -4.66,4.66zm0,-27.959l-195.711,0c-2.574,0 -4.66,-2.086 -4.66,-4.659c0,-2.574 2.086,-4.66 4.66,-4.66l195.711,0c2.574,0 4.66,2.086 4.66,4.66c0,2.573 -2.086,4.659 -4.66,4.659z"/>
  <path fill="#024286" id="XMLID_13728_" d="m255.658,422.587l-156,0c-0.515,0 -1.001,-0.104 -1.464,-0.258l-38.857,0c1.778,23.67 17.215,38.701 40.342,38.701l177.255,0c-2.324,-1.601 -4.51,-3.381 -6.518,-5.344c-8.748,-8.556 -13.8,-19.927 -14.758,-33.099z"/>
  <path fill="#024286" id="XMLID_13729_" d="m405.931,88.29c-0.665,0.025 -1.327,0.065 -1.984,0.122c-0.057,0.004 -0.113,0.01 -0.17,0.015c-0.667,0.06 -1.33,0.134 -1.988,0.225c-0.224,0.03 -0.445,0.071 -0.668,0.105c-0.465,0.071 -0.93,0.143 -1.389,0.229c-0.26,0.049 -0.516,0.107 -0.773,0.16c-0.419,0.087 -0.84,0.174 -1.255,0.272c-0.27,0.063 -0.535,0.137 -0.802,0.206c-0.398,0.103 -0.797,0.207 -1.192,0.321c-0.271,0.078 -0.54,0.164 -0.81,0.248c-0.385,0.119 -0.77,0.241 -1.149,0.371c-0.269,0.092 -0.535,0.189 -0.802,0.287c-0.376,0.137 -0.749,0.276 -1.121,0.424c-0.263,0.104 -0.524,0.212 -0.786,0.321c-0.368,0.155 -0.735,0.314 -1.1,0.479c-0.255,0.115 -0.508,0.232 -0.76,0.352c-0.364,0.174 -0.726,0.353 -1.086,0.536c-0.243,0.124 -0.486,0.248 -0.728,0.377c-0.362,0.193 -0.72,0.394 -1.076,0.596c-0.23,0.132 -0.463,0.263 -0.691,0.398c-0.362,0.215 -0.719,0.438 -1.074,0.663c-0.215,0.136 -0.43,0.27 -0.643,0.408c-0.369,0.243 -0.732,0.495 -1.095,0.749c-0.189,0.133 -0.38,0.262 -0.567,0.397c-0.395,0.285 -0.78,0.581 -1.164,0.879c-0.147,0.114 -0.299,0.224 -0.445,0.341c-0.481,0.382 -0.955,0.776 -1.421,1.179c-0.043,0.037 -0.088,0.072 -0.131,0.11c-0.52,0.452 -1.03,0.917 -1.529,1.393c-0.011,0.011 -0.021,0.022 -0.032,0.033c-0.476,0.454 -0.94,0.919 -1.396,1.395c-0.122,0.127 -0.237,0.259 -0.357,0.388c-0.341,0.362 -0.678,0.727 -1.005,1.101c-0.15,0.171 -0.294,0.347 -0.441,0.521c-0.289,0.34 -0.578,0.682 -0.857,1.03c-0.155,0.194 -0.307,0.395 -0.46,0.592c-0.26,0.336 -0.519,0.673 -0.769,1.017c-0.156,0.212 -0.305,0.428 -0.457,0.643c-0.237,0.338 -0.474,0.678 -0.702,1.022c-0.149,0.226 -0.295,0.453 -0.441,0.682c-0.218,0.343 -0.433,0.688 -0.642,1.035c-0.144,0.237 -0.282,0.476 -0.421,0.715c-0.201,0.349 -0.396,0.7 -0.588,1.055c-0.134,0.246 -0.265,0.493 -0.395,0.741c-0.184,0.356 -0.362,0.717 -0.536,1.078c-0.122,0.253 -0.244,0.505 -0.362,0.76c-0.17,0.369 -0.332,0.741 -0.492,1.115c-0.108,0.254 -0.218,0.507 -0.322,0.763c-0.156,0.386 -0.303,0.775 -0.449,1.165c-0.094,0.252 -0.191,0.501 -0.28,0.755c-0.144,0.408 -0.276,0.822 -0.409,1.236c-0.078,0.24 -0.159,0.479 -0.232,0.721c-0.138,0.456 -0.261,0.916 -0.384,1.377c-0.055,0.205 -0.116,0.409 -0.168,0.615c-0.16,0.638 -0.306,1.28 -0.438,1.928c-0.007,0.032 -0.016,0.063 -0.021,0.096c-0.138,0.684 -0.258,1.372 -0.363,2.065c-0.03,0.196 -0.051,0.396 -0.078,0.594c-0.062,0.445 -0.12,0.892 -0.168,1.342l88.799,0c-2.461,-21.918 -22.092,-38.978 -46.735,-39.743z"/>
  <path fill="#024286" id="XMLID_13730_" d="m67.553,165.653c2.573,0 4.66,-2.087 4.66,-4.66l0,-79.687c0,-11.785 9.426,-21.017 21.46,-21.017l75.703,0c2.573,0 4.66,-2.087 4.66,-4.66s-2.086,-4.659 -4.66,-4.659l-75.704,0c-16.972,0 -30.779,13.608 -30.779,30.336l0,79.688c0,2.572 2.086,4.659 4.66,4.659z"/>
  <rect fill="#024286" y="204.742" x="375.099" width="18.64" id="XMLID_13731_" height="18.64"/>
  <rect fill="#024286" y="232.701" x="375.099" width="18.64" id="XMLID_13732_" height="18.639"/>
  <rect fill="#024286" y="260.66" x="375.099" width="18.64" id="XMLID_13733_" height="18.639"/>
  <rect fill="#024286" y="288.618" x="375.099" width="18.64" id="XMLID_13734_" height="18.64"/>
  <rect fill="#024286" y="316.577" x="375.099" width="18.64" id="XMLID_13735_" height="18.639"/>
 </g>
</svg>